HIERARCHY
ROOT SpineBase
{
  OFFSET 0.000000 0.000000 0.000000
  CHANNELS 6 Xposition Yposition Zposition Zrotation Xrotation Yrotation
  JOINT SpineMid
  {
    OFFSET 0.000000 26.489333 0.000000
    CHANNELS 3 Zrotation Xrotation Yrotation
    JOINT SpineShoulder
    {
      OFFSET -0.032273 19.919747 -0.671509
      CHANNELS 3 Zrotation Xrotation Yrotation
      JOINT Neck
      {
        OFFSET -0.025928 6.646697 -0.510911
        CHANNELS 3 Zrotation Xrotation Yrotation
        JOINT Head
        {
          OFFSET -3.404569 12.287178 0.579426
          CHANNELS 3 Zrotation Xrotation Yrotation
          End Site
          {
            OFFSET 0 0 0
          }
        }
      }
      JOINT ShoulderLeft
      {
        OFFSET -11.806122 -4.088031 3.645642
        CHANNELS 3 Zrotation Xrotation Yrotation
        JOINT ElbowLeft
        {
          OFFSET -4.866157 -15.456497 2.337736
          CHANNELS 3 Zrotation Xrotation Yrotation
          JOINT WristLeft
          {
            OFFSET 8.152951 2.425631 -15.466797
            CHANNELS 3 Zrotation Xrotation Yrotation
            JOINT HandLeft
            {
              OFFSET 5.602182 2.021943 0.876611
              CHANNELS 3 Zrotation Xrotation Yrotation
              JOINT HandTipLeft
              {
                OFFSET 1.031747 2.606025 -1.440942
                CHANNELS 3 Zrotation Xrotation Yrotation
                End Site
                {
                  OFFSET 0 0 0
                }
              }
              JOINT ThumbLeft
              {
                OFFSET 1.726922 -5.418286 -0.363453
                CHANNELS 3 Zrotation Xrotation Yrotation
                End Site
                {
                  OFFSET 0 0 0
                }
              }
            }
          }
        }
      }
      JOINT ShoulderRight
      {
        OFFSET 8.464930 -4.883604 -5.830694
        CHANNELS 3 Zrotation Xrotation Yrotation
        JOINT ElbowRight
        {
          OFFSET 2.488342 -22.267258 -4.371999
          CHANNELS 3 Zrotation Xrotation Yrotation
          JOINT WristRight
          {
            OFFSET -7.425454 -21.389272 -1.088934
            CHANNELS 3 Zrotation Xrotation Yrotation
            JOINT HandRight
            {
              OFFSET -3.215690 -4.877894 -0.303868
              CHANNELS 3 Zrotation Xrotation Yrotation
              JOINT HandTipRight
              {
                OFFSET -1.641701 -6.087865 -0.775930
                CHANNELS 3 Zrotation Xrotation Yrotation
                End Site
                {
                  OFFSET 0 0 0
                }
              }
              JOINT ThumbRight
              {
                OFFSET 0.932421 -1.881259 -4.383932
                CHANNELS 3 Zrotation Xrotation Yrotation
                End Site
                {
                  OFFSET 0 0 0
                }
              }
            }
          }
        }
      }
    }
  }
  JOINT HipLeft
  {
    OFFSET -6.873765 -0.388655 -1.184908
    CHANNELS 3 Zrotation Xrotation Yrotation
    JOINT KneeLeft
    {
      OFFSET -4.447316 -31.942557 10.946545
      CHANNELS 3 Zrotation Xrotation Yrotation
      JOINT AnkleLeft
      {
        OFFSET 9.624094 -43.390842 14.404444
        CHANNELS 3 Zrotation Xrotation Yrotation
        JOINT FootLeft
        {
          OFFSET -5.279078 -5.739209 -5.571769
          CHANNELS 3 Zrotation Xrotation Yrotation
          End Site
          {
            OFFSET 0 0 0
          }
        }
      }
    }
  }
  JOINT HipRight
  {
    OFFSET 6.203866 2.340711 -4.995806
    CHANNELS 3 Zrotation Xrotation Yrotation
    JOINT KneeRight
    {
      OFFSET -7.896620 -26.852633 9.473581
      CHANNELS 3 Zrotation Xrotation Yrotation
      JOINT AnkleRight
      {
        OFFSET 0.818337 -45.371800 10.542399
        CHANNELS 3 Zrotation Xrotation Yrotation
        JOINT FootRight
        {
          OFFSET -4.922647 -4.195537 -9.408513
          CHANNELS 3 Zrotation Xrotation Yrotation
          End Site
          {
            OFFSET 0 0 0
          }
        }
      }
    }
  }
}
MOTION
Frames: 12
Frame Time: 0.033333
42.458797 104.485432 325.273849 -1.658050 18.582518 1.957554 0.923950 -9.611625 -1.547187 -0.842941 9.499393 0.012482 -0.241324 -12.335068 1.607526 0.000000 0.000000 0.000000 1.295730 -18.501088 0.234891 -1.262703 -1.824428 -1.703075 -19.878054 -3.628400 16.557308 4.085678 -15.134729 -17.358548 0.000000 0.000000 0.000000 0.000000 0.000000 0.000000 -6.159114 -25.469523 -2.016085 10.386403 -29.739015 13.084169 26.741562 26.111407 -25.393403 -9.278523 -8.758271 2.135092 0.000000 0.000000 0.000000 0.000000 0.000000 0.000000 1.471995 -27.458898 0.033870 3.887264 -11.582920 -4.033672 1.556918 11.595358 3.422540 0.000000 0.000000 0.000000 14.311653 -12.222436 4.841211 -28.197482 -42.125857 -12.748844 19.828159 16.319819 -2.974442 0.000000 0.000000 0.000000
38.512634 108.075866 301.393683 -3.078120 29.271362 52.440973 -34.498898 -29.389737 -60.706816 -5.703303 44.631946 1.967729 0.059587 -14.772359 4.169485 0.000000 0.000000 0.000000 2.848919 -30.117210 0.847782 0.724075 0.771001 2.158918 0.479701 -14.537157 37.726036 -5.744619 2.812700 -35.591757 0.000000 0.000000 0.000000 0.000000 0.000000 0.000000 -5.014107 -42.657909 -4.094445 12.375299 -32.855711 17.721282 31.929446 23.717242 -27.829000 -8.736641 -0.983873 -3.912236 0.000000 0.000000 0.000000 0.000000 0.000000 0.000000 -35.245660 -29.619840 -58.394790 2.144806 -8.080955 -6.174058 8.215862 10.434524 -0.794499 0.000000 0.000000 0.000000 -21.671989 -35.121470 -48.316430 -28.116026 -31.151458 -12.457296 25.726180 9.588812 -4.810921 0.000000 0.000000 0.000000
42.385768 87.543602 317.600347 -5.824634 38.068026 79.954610 -48.373991 -13.566556 -84.500099 -7.001080 50.204139 3.470365 1.334829 -17.177931 6.399494 0.000000 0.000000 0.000000 2.928146 -33.403458 -1.454316 7.090891 2.899917 15.819572 38.298098 -16.671806 69.061200 -23.430644 32.999503 -53.893755 0.000000 0.000000 0.000000 0.000000 0.000000 0.000000 -2.157203 -48.946708 -3.273400 12.129479 -49.725359 25.506131 125.997718 35.574703 -167.674498 72.174385 -33.770835 96.038593 0.000000 0.000000 0.000000 0.000000 0.000000 0.000000 -52.161298 -14.704158 -83.097153 3.781930 -9.470018 -5.970952 10.719170 8.048585 -1.315919 0.000000 0.000000 0.000000 -51.673388 -26.867170 -77.713128 -28.359541 -26.187951 -12.301902 26.330540 12.842103 -10.704689 0.000000 0.000000 0.000000
44.033596 75.158700 319.726712 -8.252109 43.979548 90.368409 -79.526040 -9.568139 -95.806546 -40.340338 78.979441 34.011802 2.174710 -18.650281 8.402351 0.000000 0.000000 0.000000 7.591860 -41.144325 1.722586 6.660815 6.519181 21.049146 28.787462 -24.071857 79.670637 -11.630196 20.821660 -65.833751 0.000000 0.000000 0.000000 0.000000 0.000000 0.000000 0.477216 -59.738232 -3.078397 23.189795 -58.914418 39.390409 26.047479 11.146985 -8.207478 8.401965 19.813512 -38.796397 0.000000 0.000000 0.000000 0.000000 0.000000 0.000000 -60.466056 -9.541414 -89.972733 2.394017 -5.489380 -6.044663 13.679241 0.848293 2.016973 0.000000 0.000000 0.000000 -67.561235 -21.702188 -84.912433 -28.076086 -19.144413 -11.568355 26.659128 11.562776 -13.712426 0.000000 0.000000 0.000000
41.944829 73.934574 295.922790 -11.905439 50.219107 97.733668 -97.006951 -4.832114 -99.435269 -140.044697 76.990897 131.999455 3.396967 -20.420391 10.686418 0.000000 0.000000 0.000000 17.766189 -56.303635 12.389608 6.869547 20.076552 19.693690 59.277807 -18.902681 64.972166 -42.536577 20.838680 -21.271046 0.000000 0.000000 0.000000 0.000000 0.000000 0.000000 5.268273 -76.245708 -1.843727 60.707011 -73.671107 91.549711 37.016120 12.511035 -21.318345 9.118796 13.803170 -47.810241 0.000000 0.000000 0.000000 0.000000 0.000000 0.000000 -70.647534 -6.843899 -93.623619 1.599660 -2.358165 -6.785302 18.316157 -8.170515 11.171581 0.000000 0.000000 0.000000 -81.008340 -18.114070 -88.002201 -28.478526 -14.905921 -11.311281 27.822376 10.357018 -15.809751 0.000000 0.000000 0.000000
37.401744 86.406945 246.575089 -15.366150 53.715986 104.527309 -99.823833 -2.264865 -100.784548 -143.332153 73.623288 132.709638 6.402526 -32.945814 9.329946 0.000000 0.000000 0.000000 37.793127 -70.581159 34.174822 11.918003 38.183743 17.810217 55.786080 -30.474025 56.690630 -28.750039 8.944510 -8.944548 0.000000 0.000000 0.000000 0.000000 0.000000 0.000000 174.506756 -85.477739 163.127680 55.338528 -65.577216 85.354368 38.257507 16.028019 -24.807082 0.767884 7.372703 -40.888430 0.000000 0.000000 0.000000 0.000000 0.000000 0.000000 -81.008236 -3.048420 -95.484693 1.412104 4.059003 -7.974278 24.531336 -15.672027 18.747102 0.000000 0.000000 0.000000 -90.582328 -12.953491 -89.122061 -26.673227 -7.422660 -10.504685 33.031641 -7.695812 -7.876714 0.000000 0.000000 0.000000
31.400055 103.335166 192.509399 -18.988873 51.060267 109.975002 -102.717416 -0.495164 -103.845462 -142.802701 69.011804 128.880048 9.237923 -26.055599 12.514481 0.000000 0.000000 0.000000 106.435829 -74.842746 104.907556 138.969726 72.987628 -75.498666 -39.980138 -31.553950 -153.649000 24.234947 41.130246 130.794298 0.000000 0.000000 0.000000 0.000000 0.000000 0.000000 -174.535428 -68.841953 167.683418 40.387191 -48.548817 63.127430 35.069630 19.865748 -22.170537 -13.080240 18.076350 -23.632162 0.000000 0.000000 0.000000 0.000000 0.000000 0.000000 -83.181810 -0.328736 -98.181986 1.680458 8.205908 -8.703777 34.678785 -26.357221 48.565517 0.000000 0.000000 0.000000 -93.379649 -9.262015 -91.117320 -25.528582 -3.025871 -10.217766 40.511382 -18.923622 7.358725 0.000000 0.000000 0.000000
23.409332 124.827474 142.776061 -11.168616 -15.035867 118.362247 -50.436864 13.317220 -120.673044 -33.599034 60.351225 26.441855 -24.684271 68.890931 49.670858 0.000000 0.000000 0.000000 27.477010 -44.194800 23.748958 -145.381833 19.398066 -85.490476 -96.621785 -1.360660 144.197218 -38.815228 60.150505 -167.527810 0.000000 0.000000 0.000000 0.000000 0.000000 0.000000 -6.876193 -75.741404 -23.849331 31.609506 -15.345979 33.152574 19.016607 19.591208 -1.837826 -29.422081 42.672427 -4.349999 0.000000 0.000000 0.000000 0.000000 0.000000 0.000000 -25.771833 -0.272246 -117.973737 3.141624 15.656062 -10.151401 48.794575 -30.444889 69.777753 0.000000 0.000000 0.000000 -36.813053 -8.196845 -111.439028 -25.927843 1.701168 -9.878679 60.475711 -34.154878 33.342145 0.000000 0.000000 0.000000
15.906359 146.531024 115.233192 -9.612018 -46.785677 138.808210 -20.938661 14.371121 -145.783842 -15.579540 39.113204 11.352866 -141.419827 67.455943 169.327013 0.000000 0.000000 0.000000 20.802939 -20.266435 15.377997 15.825759 68.264364 163.288468 -13.045563 -9.703430 85.496597 -100.461748 27.434755 -156.761716 0.000000 0.000000 0.000000 0.000000 0.000000 0.000000 -3.776772 -54.110861 -17.396062 30.089516 -4.896196 27.125989 16.844328 17.058939 2.131742 -40.426399 41.404450 7.862720 0.000000 0.000000 0.000000 0.000000 0.000000 0.000000 -5.350916 -10.815609 -140.994640 3.240427 19.988982 -11.073307 53.541503 -30.670414 80.270473 0.000000 0.000000 0.000000 -17.390819 -11.891108 -135.701617 -23.458772 6.418977 -9.852415 84.139270 -34.354175 67.418615 0.000000 0.000000 0.000000
9.213764 168.452881 114.431908 -8.809218 -16.864609 91.211677 -58.519738 -1.736778 -99.667361 -68.367764 79.426346 65.970329 -9.841633 56.888880 32.831364 0.000000 0.000000 0.000000 33.962192 -58.670833 35.063911 12.620513 67.161992 -175.369879 -15.992283 -8.258759 68.129643 -115.352123 55.110983 69.394375 0.000000 0.000000 0.000000 0.000000 0.000000 0.000000 -121.522337 -82.675097 -135.784991 26.774144 -5.382601 29.318546 20.705519 13.128779 -0.290986 -49.423689 47.496368 17.458070 0.000000 0.000000 0.000000 0.000000 0.000000 0.000000 -27.668695 -9.662934 -91.815567 3.721236 22.423764 -11.621897 50.736398 -30.724959 77.904796 0.000000 0.000000 0.000000 -33.181191 -15.984217 -85.524632 -19.599110 7.225143 -10.293806 93.621147 -26.589127 87.437290 0.000000 0.000000 0.000000
1.367498 194.787995 103.638102 69.111314 -29.448633 79.728856 -54.183904 5.454655 -17.311615 93.271982 13.361652 -75.158168 -97.964083 79.394490 34.038791 0.000000 0.000000 0.000000 -74.682166 -47.517377 10.635100 55.075709 32.432982 176.649264 3.575429 -37.100838 40.849709 -64.230726 11.854563 -14.748313 0.000000 0.000000 0.000000 0.000000 0.000000 0.000000 -146.280053 -74.391202 -72.038294 27.018913 -7.215684 30.826121 20.859731 14.046440 -0.977334 -60.485102 43.560601 29.632306 0.000000 0.000000 0.000000 0.000000 0.000000 0.000000 -46.088468 30.492183 -13.196970 6.956179 26.884337 -13.016895 46.896240 -30.634290 80.221469 0.000000 0.000000 0.000000 -47.135235 27.590308 -4.995765 -9.790754 8.817731 -11.613322 29.297008 4.820271 151.708906 0.000000 0.000000 0.000000
-1.656976 193.833169 153.616406 97.250788 -33.103314 82.775601 -58.245460 7.515069 10.153331 73.527284 -13.936457 -48.349023 157.608508 56.432229 126.611957 0.000000 0.000000 0.000000 -83.055227 -3.875285 32.239772 74.053861 29.017789 -142.655296 -12.201344 -43.143002 -12.075374 -54.986813 -27.082105 -21.297778 0.000000 0.000000 0.000000 0.000000 0.000000 0.000000 -81.125205 -39.109921 18.610694 22.735580 -30.862108 48.147372 35.016755 9.931581 -17.090961 -87.692083 24.474470 61.376624 0.000000 0.000000 0.000000 0.000000 0.000000 0.000000 -67.593216 39.751912 20.296200 7.737671 21.536302 -11.641242 31.661162 -27.511682 59.939392 0.000000 0.000000 0.000000 -74.565870 33.893486 31.658342 -1.913276 2.568398 -11.808024 170.588477 -13.679598 127.657687 0.000000 0.000000 0.000000
